#!OML:ASF F:\VICON\USERDATA\INSTALL\rory3\rory3.ASF
:FULLY-SPECIFIED
:DEGREES
858
root 5.50101 19.2499 -10.0219 82.9603 -30.3689 -52.95
lowerback -22.1673 7.818 9.65942
upperback -17.0897 7.85746 4.52533
thorax -6.33678 3.07047 0.971412
lowerneck -17.8301 11.4644 4.33269
upperneck 10.4127 13.126 8.89547
head 5.70232 7.2856 3.44103
rclavicle 4.90998e-014 6.36111e-014
rhumerus 156.803 -36.6576 -151.674
rradius 10.639
rwrist 110.886
rhand -1.0063 4.85019
rfingers 7.12502
rthumb 24.6262 -23.5855
lclavicle 4.90998e-014 6.36111e-014
lhumerus -18.4552 18.9918 -14.7645
lradius 18.4742
lwrist -41.8657
lhand 6.01542 33.9918
lfingers 7.12502
lthumb 31.338 61.3283
rfemur 21.9325 8.36804 -5.1124
rtibia 53.1023
rfoot 51.9452 -25.1682
rtoes 22.561
lfemur -42.1234 13.3146 23.8322
ltibia 21.6976
lfoot -62.2928 -5.48289
ltoes 57.1357
859
root 5.49396 19.2305 -10.011 83.5246 -30.3194 -53.4781
lowerback -22.5869 7.89506 9.68143
upperback -17.0606 7.86947 4.69168
thorax -6.1273 3.08822 1.18853
lowerneck -17.8042 11.5427 4.31344
upperneck 10.3546 13.224 9.02827
head 5.66617 7.34147 3.48831
rclavicle 3.97569e-014 2.8625e-014
rhumerus 155.699 -38.559 -150.448
rradius 10.6916
rwrist 108.299
rhand -1.01937 4.45506
rfingers 7.12502
rthumb 24.6136 -23.9824
lclavicle 3.97569e-014 2.8625e-014
lhumerus -18.9197 19.9759 -15.2455
lradius 18.331
lwrist -42.8621
lhand 5.9732 33.8079
lfingers 7.12502
lthumb 31.2978 61.1522
rfemur 21.9397 9.66248 -5.09548
rtibia 53.9388
rfoot 52.6041 -19.2429
rtoes 14.6568
lfemur -41.6092 13.6093 24.0431
ltibia 21.2654
lfoot -62.2651 -5.42253
ltoes 57.2435
860
root 5.4875 19.2091 -9.99329 84.0543 -30.6919 -53.7162
lowerback -23.2652 7.82657 9.25279
upperback -17.0239 7.72716 4.7494
thorax -5.81223 3.06548 1.52125
lowerneck -17.4795 11.6279 4.26544
upperneck 9.88021 13.3844 9.20277
head 5.44254 7.41471 3.51527
rclavicle -1.36366e-013 -3.18055e-015
rhumerus 154.55 -40.2164 -149.345
rradius 10.8948
rwrist 105.763
rhand -0.658732 3.733
rfingers 7.12502
rthumb 24.9593 -24.6569
lclavicle -1.36366e-013 -3.18055e-015
lhumerus -19.4889 19.739 -15.639
lradius 18.3424
lwrist -42.615
lhand 5.89812 33.7167
lfingers 7.12502
lthumb 31.2262 61.0748
rfemur 21.9269 10.813 -5.42491
rtibia 54.6463
rfoot 52.0403 -29.104
rtoes 29.3351
lfemur -41.4918 13.7628 23.6883
ltibia 21.195
lfoot -62.1471 -5.11261
ltoes 57.1685
861
root 5.48276 19.184 -9.98603 84.5284 -30.3494 -53.8511
lowerback -23.9536 7.78675 9.34907
upperback -17.0268 7.52479 4.95364
thorax -5.52168 2.96613 1.72267
lowerneck -17.1925 11.6729 4.21049
upperneck 9.43057 13.4848 9.41022
head 5.23288 7.46117 3.55107
rclavicle -1.23048e-013 -2.00375e-013
rhumerus 153.312 -42.266 -147.986
rradius 10.8639
rwrist 102.865
rhand -0.429426 2.94053
rfingers 7.12502
rthumb 25.179 -25.4187
lclavicle -1.23048e-013 -2.00375e-013
lhumerus -19.966 18.3397 -15.745
lradius 18.5973
lwrist -41.078
lhand 5.94072 34.082
lfingers 7.12502
lthumb 31.2668 61.4323
rfemur 21.9454 11.8263 -4.7053
rtibia 55.3277
rfoot 53.4913 -22.3179
rtoes 21.7394
lfemur -41.5992 13.9951 24.1335
ltibia 21.3445
lfoot -61.795 -4.44322
ltoes 56.9527
862
root 5.47587 19.1594 -9.99144 84.9278 -29.1494 -54.0323
lowerback -24.4098 7.75683 9.98892
upperback -17.0735 7.2632 5.44738
thorax -5.39987 2.79532 1.91559
lowerneck -17.4137 11.8019 4.20551
upperneck 9.53273 13.6026 9.65604
head 5.2791 7.54363 3.65681
rclavicle 4.79071e-014 -8.90555e-014
rhumerus 151.795 -44.7602 -146.166
rradius 10.6865
rwrist 99.3453
rhand -0.136423 2.70669
rfingers 7.12502
rthumb 25.4597 -25.6128
lclavicle 4.79071e-014 -8.90555e-014
lhumerus -20.4776 18.0336 -16.0078
lradius 18.7151
lwrist -40.8772
lhand 6.09079 34.4808
lfingers 7.12502
lthumb 31.4098 61.8034
rfemur 22.0381 12.7313 -2.81174
rtibia 55.9878
rfoot 50.9634 -31.3624
rtoes 33.3276
lfemur -41.71 14.3904 25.5705
ltibia 21.6412
lfoot -60.9174 -3.96002
ltoes 56.8143
863
root 5.47178 19.1349 -9.99545 85.3564 -28.0385 -54.0545
lowerback -24.9536 7.7885 10.5585
upperback -17.1475 7.07682 5.80834
thorax -5.25751 2.66355 2.02357
lowerneck -17.5789 11.8255 4.11967
upperneck 9.47177 13.6216 9.83695
head 5.26683 7.56488 3.73301
rclavicle 5.46658e-014 -4.77083e-014
rhumerus 150.836 -46.9555 -144.708
rradius 10.5289
rwrist 96.177
rhand 0.330321 2.39583
rfingers 7.12502
rthumb 25.9067 -25.8591
lclavicle 5.46658e-014 -4.77083e-014
lhumerus -20.8856 18.1545 -16.2331
lradius 18.8056
lwrist -41.1883
lhand 6.08 34.2802
lfingers 7.12502
lthumb 31.3995 61.6047
rfemur 21.991 13.3371 -1.01755
rtibia 56.5411
rfoot 48.5915 -37.4388
rtoes 39.7013
lfemur -42.0286 14.7472 26.8851
ltibia 22.0898
lfoot -59.7798 -4.26409
ltoes 56.7477
864
root 5.47242 19.1093 -9.99844 85.833 -26.5794 -54.0552
lowerback -25.4577 7.94804 11.5668
upperback -17.256 6.96225 6.15027
thorax -5.14684 2.52331 1.89178
lowerneck -17.5755 11.7456 3.98298
upperneck 9.09347 13.5672 9.8798
head 5.13576 7.52607 3.73944
rclavicle 1.0138e-014 1.08139e-013
rhumerus 150.401 -48.2133 -144.004
rradius 10.4922
rwrist 94.4013
rhand 0.75813 2.0383
rfingers 7.12502
rthumb 26.3163 -26.1561
lclavicle 1.0138e-014 1.08139e-013
lhumerus -21.2273 17.8416 -16.3401
lradius 18.8719
lwrist -40.8084
lhand 5.71872 33.9929
lfingers 7.12502
lthumb 31.0553 61.3838
rfemur 21.7545 13.8234 1.22674
rtibia 56.9695
rfoot 47.4793 -40.3483
rtoes 41.6801
lfemur -42.6055 15.1103 28.5238
ltibia 22.5374
lfoot -58.6645 -4.99236
ltoes 56.669
865
root 5.47756 19.077 -10.0097 85.6222 -24.2902 -53.6431
lowerback -25.6062 7.93404 13.2953
upperback -17.2639 6.51996 6.70807
thorax -5.09196 2.15953 1.51811
lowerneck -17.6281 11.7872 3.97206
upperneck 8.75246 13.6463 9.85751
head 5.03309 7.55348 3.72646
rclavicle 1.51076e-014 1.90833e-014
rhumerus 149.543 -49.4051 -143.138
rradius 10.5258
rwrist 92.7053
rhand 1.33633 1.74791
rfingers 7.12502
rthumb 26.8697 -26.3626
lclavicle 1.51076e-014 1.90833e-014
lhumerus -21.6519 17.5597 -16.6573
lradius 18.839
lwrist -40.1694
lhand 5.774 34.2906
lfingers 7.12502
lthumb 31.1079 61.6714
rfemur 22.2721 13.9236 4.5938
rtibia 57.1602
rfoot 46.6063 -42.1541
rtoes 43.0347
lfemur -43.4621 15.0198 30.9008
ltibia 22.9563
lfoot -57.3789 -5.82602
ltoes 56.947
866
root 5.49201 19.042 -10.0209 85.6877 -22.7873 -53.1748
lowerback -26.1787 7.90793 14.3639
upperback -17.3772 6.1082 7.09443
thorax -4.76258 1.8596 1.28842
lowerneck -18.023 11.8866 4.04297
upperneck 8.73318 13.7347 9.80525
head 5.09311 7.60069 3.73522
rclavicle 5.76476e-015 -4.13472e-014
rhumerus 148.373 -51.1624 -141.725
rradius 10.4422
rwrist 90.5736
rhand 2.08627 1.34707
rfingers 7.12502
rthumb 27.5871 -26.651
lclavicle 5.76476e-015 -4.13472e-014
lhumerus -22.0754 17.6585 -17.0377
lradius 18.7571
lwrist -40.1485
lhand 5.66282 34.4662
lfingers 7.12502
lthumb 31.002 61.8673
rfemur 22.3283 13.6227 6.64949
rtibia 57.2749
rfoot 46.6139 -42.0728
rtoes 43.5555
lfemur -43.9881 14.884 32.693
ltibia 23.347
lfoot -55.8242 -7.13664
ltoes 57.5215
867
root 5.50495 19.012 -10.029 85.8358 -21.4795 -52.6311
lowerback -26.4769 7.84975 15.0274
upperback -17.5517 5.81255 7.38098
thorax -4.86941 1.64546 1.22589
lowerneck -18.1149 12.1452 4.27563
upperneck 8.79228 14.0447 9.54851
head 5.14718 7.74278 3.66249
rclavicle 1.64991e-014 -1.46306e-013
rhumerus 146.762 -54.1901 -139.35
rradius 10.1856
rwrist 87.373
rhand 2.81511 1.26084
rfingers 7.12502
rthumb 28.2839 -26.6238
lclavicle 1.64991e-014 -1.46306e-013
lhumerus -22.3992 18.5182 -17.4153
lradius 18.5656
lwrist -41.2153
lhand 5.3495 33.6579
lfingers 7.12502
lthumb 30.7033 61.1155
rfemur 22.1443 13.0145 8.35525
rtibia 57.2463
rfoot 48.2142 -39.5577
rtoes 41.7184
lfemur -44.7728 14.8754 34.171
ltibia 23.6703
lfoot -54.4276 -7.93683
ltoes 57.8712
868
root 5.52299 18.9803 -10.0335 85.785 -20.1598 -51.9945
lowerback -26.5546 7.77059 15.8271
upperback -17.6949 5.51172 7.59872
thorax -5.02834 1.41125 1.00943
lowerneck -18.028 12.1447 4.20193
upperneck 8.16453 14.1256 9.4161
head 4.93456 7.75077 3.59954
rclavicle 9.38264e-014 4.13472e-014
rhumerus 145.39 -56.5838 -137.488
rradius 10.152
rwrist 84.9419
rhand 3.5241 1.81504
rfingers 7.12502
rthumb 28.9612 -25.9554
lclavicle 9.38264e-014 4.13472e-014
lhumerus -22.7249 19.1067 -17.8101
lradius 18.38
lwrist -42.4551
lhand 5.11354 32.5315
lfingers 7.12502
lthumb 30.4783 60.0311
rfemur 22.0305 12.1848 10.0012
rtibia 57.1173
rfoot 50.0879 -35.5989
rtoes 37.9601
lfemur -45.4822 14.6957 35.6653
ltibia 23.8378
lfoot -53.326 -7.98862
ltoes 57.8865
869
root 5.54251 18.9534 -10.0318 85.6226 -19.194 -51.3547
lowerback -26.4614 7.65447 16.4696
upperback -17.7989 5.24477 7.71342
thorax -5.20846 1.20374 0.756537
lowerneck -17.8785 12.0148 3.93042
upperneck 7.21565 14.0944 9.37717
head 4.59575 7.69542 3.56118
rclavicle -1.07344e-013 -2.54444e-014
rhumerus 145.567 -56.5996 -137.819
rradius 10.3827
rwrist 85.1584
rhand 3.96644 1.99132
rfingers 7.12502
rthumb 29.3837 -25.7058
lclavicle -1.07344e-013 -2.54444e-014
lhumerus -23.0116 19.0189 -18.0052
lradius 18.3836
lwrist -42.9762
lhand 5.41241 32.6446
lfingers 7.12502
lthumb 30.7633 60.0909
rfemur 21.8962 11.138 11.079
rtibia 56.9082
rfoot 51.6371 -30.5534
rtoes 32.554
lfemur -46.1019 14.3323 36.7686
ltibia 23.9845
lfoot -52.2829 -8.4569
ltoes 57.8773
870
root 5.55989 18.9284 -10.0278 85.5687 -18.4273 -50.7542
lowerback -26.4334 7.61409 16.9627
upperback -17.906 5.09821 7.77595
thorax -5.35719 1.07106 0.554225
lowerneck -17.9446 11.608 3.33801
upperneck 6.30546 13.74 9.39637
head 4.29171 7.48267 3.57704
rclavicle -1.51076e-014 -1.27222e-014
rhumerus 144.277 -58.3099 -136.115
rradius 10.4792
rwrist 83.1096
rhand 4.539 1.26775
rfingers 7.12502
rthumb 29.9302 -26.3321
lclavicle -1.51076e-014 -1.27222e-014
lhumerus -23.2015 18.7521 -17.9063
lradius 18.4295
lwrist -42.8229
lhand 5.58406 33.3876
lfingers 7.12502
lthumb 30.9269 60.8029
rfemur 21.5627 9.94225 11.8234
rtibia 56.631
rfoot 52.8466 -24.3598
rtoes 24.6244
lfemur -46.7441 14.0641 37.6226
ltibia 24.1474
lfoot -51.3639 -9.06087
ltoes 57.6845
871
root 5.57138 18.9052 -10.0199 85.4866 -18.0254 -50.1975
lowerback -26.3103 7.50825 17.1533
upperback -18.0189 4.96516 7.82375
thorax -5.5511 0.969493 0.475199
lowerneck -18.0063 11.488 2.94733
upperneck 5.94232 13.6998 9.30035
head 4.16858 7.43851 3.58387
rclavicle 2.10712e-014 -5.725e-014
rhumerus 143.495 -59.2958 -135.019
rradius 10.5424
rwrist 81.8221
rhand 5.25107 1.166
rfingers 7.12502
rthumb 30.6094 -26.3092
lclavicle 2.10712e-014 -5.725e-014
lhumerus -23.6066 17.9893 -17.8014
lradius 18.5154
lwrist -42.4354
lhand 5.31228 33.3371
lfingers 7.12502
lthumb 30.6678 60.8014
rfemur 21.1642 8.74268 12.1506
rtibia 56.2871
rfoot 53.6584 -17.247
rtoes 13.4592
lfemur -47.2957 13.7566 38.0605
ltibia 24.3359
lfoot -50.4335 -9.08603
ltoes 57.4773
872
root 5.58126 18.8891 -10.0026 85.1061 -18.0366 -49.67
lowerback -25.8062 7.2402 17.0389
upperback -18.0858 4.79568 7.84469
thorax -5.85065 0.87421 0.474643
lowerneck -18.0526 11.5247 2.85701
upperneck 5.62333 13.8114 9.03049
head 4.08221 7.46553 3.51105
rclavicle 1.59028e-015 2.8625e-014
rhumerus 144.336 -58.4884 -136.082
rradius 10.7412
rwrist 82.742
rhand 5.63093 1.60057
rfingers 7.12502
rthumb 30.9716 -25.8063
lclavicle 1.59028e-015 2.8625e-014
lhumerus -24.2167 17.8565 -18.0317
lradius 18.6331
lwrist -42.8217
lhand 5.28813 32.9741
lfingers 7.12502
lthumb 30.6448 60.4427
rfemur 20.9875 7.61008 12.126
rtibia 55.9173
rfoot 53.9449 -26.0724
rtoes 24.695
lfemur -47.6443 13.1245 38.0283
ltibia 24.5766
lfoot -49.4094 -9.27231
ltoes 57.5181
